<?xml version="1.0" encoding="utf-8"?>
<svg version="1.1" xmlns:xlink="http://www.w3.org/1999/xlink" width="12px" height="12px" viewBox="768 767  12 12" xmlns="http://www.w3.org/2000/svg">
  <path d="M 774 767  C 777.36 767  780 769.64  780 773  C 780 776.36  777.36 779  774 779  C 770.64 779  768 776.36  768 773  C 768 769.64  770.64 767  774 767  Z " fill-rule="nonzero" fill="#ffffff" stroke="none" />
  <path d="M 774 767.5  C 777.08 767.5  779.5 769.92  779.5 773  C 779.5 776.08  777.08 778.5  774 778.5  C 770.92 778.5  768.5 776.08  768.5 773  C 768.5 769.92  770.92 767.5  774 767.5  Z " stroke-width="1" stroke="#797979" fill="none" />
  <path d="M 774 776  C 772.32 776  771 774.68  771 773  C 771 771.32  772.32 770  774 770  C 775.68 770  777 771.32  777 773  C 777 774.68  775.68 776  774 776  " fill-rule="nonzero" fill="#797979" stroke="none" />
</svg>