<?xml version="1.0" encoding="utf-8"?>
<svg version="1.1" xmlns:xlink="http://www.w3.org/1999/xlink" width="51px" height="81px" xmlns="http://www.w3.org/2000/svg">
  <defs>
    <linearGradient gradientUnits="userSpaceOnUse" x1="722" y1="531" x2="722" y2="611" id="LinearGradient78">
      <stop id="Stop79" stop-color="#ffffff" offset="0" />
      <stop id="Stop80" stop-color="#f2f2f2" offset="0" />
      <stop id="Stop81" stop-color="#e4e4e4" offset="1" />
      <stop id="Stop82" stop-color="#ffffff" offset="1" />
    </linearGradient>
  </defs>
  <g transform="matrix(1 0 0 1 -697 -531 )">
    <path d="M 722 531.5  C 727.32 531.5  731.5 535.68  731.5 541  C 731.5 546.32  727.32 550.5  722 550.5  C 716.68 550.5  712.5 546.32  712.5 541  C 712.5 535.68  716.68 531.5  722 531.5  Z " fill-rule="nonzero" fill="url(#LinearGradient78)" stroke="none" />
    <path d="M 722 531.5  C 727.32 531.5  731.5 535.68  731.5 541  C 731.5 546.32  727.32 550.5  722 550.5  C 716.68 550.5  712.5 546.32  712.5 541  C 712.5 535.68  716.68 531.5  722 531.5  Z " stroke-width="1" stroke="#797979" fill="none" />
    <path d="M 697 561  L 747 561  M 722 551  L 722 586  M 702 611  L 722 586  M 722 586  L 742 611  " stroke-width="1" stroke="#797979" fill="none" />
  </g>
</svg>