<?xml version="1.0" encoding="utf-8"?>
<svg version="1.1" xmlns:xlink="http://www.w3.org/1999/xlink" width="14px" height="16px" xmlns="http://www.w3.org/2000/svg">
  <defs>
    <mask fill="white" id="clip95">
      <path d="M 13.9651988636364 12.2239583333333  C 13.9883996212121 12.5746527777778  14 12.9340277777778  14 13.3020833333333  C 14 14.1354166666667  13.7580492424242 14.7934027777778  13.2741477272727 15.2760416666667  C 12.7902462121212 15.7586805555555  12.1472537878788 16  11.3451704545455 16  L 2.6548295454545 16  C 1.85274621212125 16  1.20975378787875 15.7586805555555  0.725852272727252 15.2760416666667  C 0.241950757575751 14.7934027777778  0 14.1354166666667  0 13.3020833333333  C 0 12.9340277777778  0.0116003787878753 12.5746527777778  0.034801136363626 12.2239583333333  C 0.0580018939393767 11.8732638888889  0.104403409090878 11.4947916666667  0.17400568181813 11.0885416666667  C 0.243607954545496 10.6822916666667  0.331439393939377 10.3055555555555  0.4375 9.95833333333334  C 0.543560606060623 9.61111111111114  0.686079545454504 9.27256944444447  0.86505681818187 8.94270833333334  C 1.04403409090912 8.61284722222219  1.2495265151515 8.33159722222219  1.48153409090912 8.09895833333334  C 1.71354166666663 7.86631944444447  1.99692234848487 7.68055555555553  2.33167613636363 7.54166666666666  C 2.66642992424238 7.40277777777781  3.03598484848487 7.33333333333334  3.44034090909088 7.33333333333334  C 3.5 7.33333333333334  3.6392045454545 7.40798611111114  3.8579545454545 7.55729166666666  C 4.0767045454545 7.70659722222219  4.32362689393938 7.87326388888886  4.59872159090912 8.05729166666666  C 4.87381628787875 8.24131944444447  5.23177083333337 8.40798611111114  5.67258522727275 8.55729166666666  C 6.11339962121212 8.70659722222219  6.55587121212125 8.78125  7 8.78125  C 7.44412878787875 8.78125  7.88660037878788 8.70659722222219  8.32741477272725 8.55729166666666  C 8.76822916666663 8.40798611111114  9.12618371212125 8.24131944444447  9.40127840909088 8.05729166666666  C 9.67637310606062 7.87326388888886  9.9232954545455 7.70659722222219  10.1420454545455 7.55729166666666  C 10.3607954545455 7.40798611111114  10.5 7.33333333333334  10.5596590909091 7.33333333333334  C 10.9640151515151 7.33333333333334  11.3335700757576 7.40277777777781  11.6683238636364 7.54166666666666  C 12.0030776515151 7.68055555555553  12.2864583333334 7.86631944444447  12.5184659090909 8.09895833333334  C 12.7504734848485 8.33159722222219  12.9559659090909 8.61284722222219  13.1349431818181 8.94270833333334  C 13.3139204545455 9.27256944444447  13.4564393939394 9.61111111111114  13.5625 9.95833333333334  C 13.6685606060606 10.3055555555555  13.7563920454545 10.6822916666667  13.8259943181819 11.0885416666667  C 13.8955965909091 11.4947916666667  13.9419981060606 11.8732638888889  13.9651988636364 12.2239583333333  Z M 9.69957386363637 1.171875  C 10.4453125 1.953125  10.8181818181819 2.89583333333333  10.8181818181819 4  C 10.8181818181819 5.10416666666667  10.4453125 6.046875  9.69957386363637 6.828125  C 8.95383522727275 7.609375  8.05397727272725 8  7 8  C 5.94602272727275 8  5.04616477272725 7.609375  4.30042613636363 6.828125  C 3.5546875 6.046875  3.18181818181813 5.10416666666667  3.18181818181813 4  C 3.18181818181813 2.89583333333333  3.5546875 1.953125  4.30042613636363 1.171875  C 5.04616477272725 0.390625  5.94602272727275 0  7 0  C 8.05397727272725 0  8.95383522727275 0.390625  9.69957386363637 1.171875  Z " fill-rule="evenodd" />
    </mask>
  </defs>
  <g transform="matrix(1 0 0 1 -805 -12 )">
    <path d="M 13.9651988636364 12.2239583333333  C 13.9883996212121 12.5746527777778  14 12.9340277777778  14 13.3020833333333  C 14 14.1354166666667  13.7580492424242 14.7934027777778  13.2741477272727 15.2760416666667  C 12.7902462121212 15.7586805555555  12.1472537878788 16  11.3451704545455 16  L 2.6548295454545 16  C 1.85274621212125 16  1.20975378787875 15.7586805555555  0.725852272727252 15.2760416666667  C 0.241950757575751 14.7934027777778  0 14.1354166666667  0 13.3020833333333  C 0 12.9340277777778  0.0116003787878753 12.5746527777778  0.034801136363626 12.2239583333333  C 0.0580018939393767 11.8732638888889  0.104403409090878 11.4947916666667  0.17400568181813 11.0885416666667  C 0.243607954545496 10.6822916666667  0.331439393939377 10.3055555555555  0.4375 9.95833333333334  C 0.543560606060623 9.61111111111114  0.686079545454504 9.27256944444447  0.86505681818187 8.94270833333334  C 1.04403409090912 8.61284722222219  1.2495265151515 8.33159722222219  1.48153409090912 8.09895833333334  C 1.71354166666663 7.86631944444447  1.99692234848487 7.68055555555553  2.33167613636363 7.54166666666666  C 2.66642992424238 7.40277777777781  3.03598484848487 7.33333333333334  3.44034090909088 7.33333333333334  C 3.5 7.33333333333334  3.6392045454545 7.40798611111114  3.8579545454545 7.55729166666666  C 4.0767045454545 7.70659722222219  4.32362689393938 7.87326388888886  4.59872159090912 8.05729166666666  C 4.87381628787875 8.24131944444447  5.23177083333337 8.40798611111114  5.67258522727275 8.55729166666666  C 6.11339962121212 8.70659722222219  6.55587121212125 8.78125  7 8.78125  C 7.44412878787875 8.78125  7.88660037878788 8.70659722222219  8.32741477272725 8.55729166666666  C 8.76822916666663 8.40798611111114  9.12618371212125 8.24131944444447  9.40127840909088 8.05729166666666  C 9.67637310606062 7.87326388888886  9.9232954545455 7.70659722222219  10.1420454545455 7.55729166666666  C 10.3607954545455 7.40798611111114  10.5 7.33333333333334  10.5596590909091 7.33333333333334  C 10.9640151515151 7.33333333333334  11.3335700757576 7.40277777777781  11.6683238636364 7.54166666666666  C 12.0030776515151 7.68055555555553  12.2864583333334 7.86631944444447  12.5184659090909 8.09895833333334  C 12.7504734848485 8.33159722222219  12.9559659090909 8.61284722222219  13.1349431818181 8.94270833333334  C 13.3139204545455 9.27256944444447  13.4564393939394 9.61111111111114  13.5625 9.95833333333334  C 13.6685606060606 10.3055555555555  13.7563920454545 10.6822916666667  13.8259943181819 11.0885416666667  C 13.8955965909091 11.4947916666667  13.9419981060606 11.8732638888889  13.9651988636364 12.2239583333333  Z M 9.69957386363637 1.171875  C 10.4453125 1.953125  10.8181818181819 2.89583333333333  10.8181818181819 4  C 10.8181818181819 5.10416666666667  10.4453125 6.046875  9.69957386363637 6.828125  C 8.95383522727275 7.609375  8.05397727272725 8  7 8  C 5.94602272727275 8  5.04616477272725 7.609375  4.30042613636363 6.828125  C 3.5546875 6.046875  3.18181818181813 5.10416666666667  3.18181818181813 4  C 3.18181818181813 2.89583333333333  3.5546875 1.953125  4.30042613636363 1.171875  C 5.04616477272725 0.390625  5.94602272727275 0  7 0  C 8.05397727272725 0  8.95383522727275 0.390625  9.69957386363637 1.171875  Z " fill-rule="nonzero" fill="#000000" stroke="none" fill-opacity="0" transform="matrix(1 0 0 1 805 12 )" />
    <path d="M 13.9651988636364 12.2239583333333  C 13.9883996212121 12.5746527777778  14 12.9340277777778  14 13.3020833333333  C 14 14.1354166666667  13.7580492424242 14.7934027777778  13.2741477272727 15.2760416666667  C 12.7902462121212 15.7586805555555  12.1472537878788 16  11.3451704545455 16  L 2.6548295454545 16  C 1.85274621212125 16  1.20975378787875 15.7586805555555  0.725852272727252 15.2760416666667  C 0.241950757575751 14.7934027777778  0 14.1354166666667  0 13.3020833333333  C 0 12.9340277777778  0.0116003787878753 12.5746527777778  0.034801136363626 12.2239583333333  C 0.0580018939393767 11.8732638888889  0.104403409090878 11.4947916666667  0.17400568181813 11.0885416666667  C 0.243607954545496 10.6822916666667  0.331439393939377 10.3055555555555  0.4375 9.95833333333334  C 0.543560606060623 9.61111111111114  0.686079545454504 9.27256944444447  0.86505681818187 8.94270833333334  C 1.04403409090912 8.61284722222219  1.2495265151515 8.33159722222219  1.48153409090912 8.09895833333334  C 1.71354166666663 7.86631944444447  1.99692234848487 7.68055555555553  2.33167613636363 7.54166666666666  C 2.66642992424238 7.40277777777781  3.03598484848487 7.33333333333334  3.44034090909088 7.33333333333334  C 3.5 7.33333333333334  3.6392045454545 7.40798611111114  3.8579545454545 7.55729166666666  C 4.0767045454545 7.70659722222219  4.32362689393938 7.87326388888886  4.59872159090912 8.05729166666666  C 4.87381628787875 8.24131944444447  5.23177083333337 8.40798611111114  5.67258522727275 8.55729166666666  C 6.11339962121212 8.70659722222219  6.55587121212125 8.78125  7 8.78125  C 7.44412878787875 8.78125  7.88660037878788 8.70659722222219  8.32741477272725 8.55729166666666  C 8.76822916666663 8.40798611111114  9.12618371212125 8.24131944444447  9.40127840909088 8.05729166666666  C 9.67637310606062 7.87326388888886  9.9232954545455 7.70659722222219  10.1420454545455 7.55729166666666  C 10.3607954545455 7.40798611111114  10.5 7.33333333333334  10.5596590909091 7.33333333333334  C 10.9640151515151 7.33333333333334  11.3335700757576 7.40277777777781  11.6683238636364 7.54166666666666  C 12.0030776515151 7.68055555555553  12.2864583333334 7.86631944444447  12.5184659090909 8.09895833333334  C 12.7504734848485 8.33159722222219  12.9559659090909 8.61284722222219  13.1349431818181 8.94270833333334  C 13.3139204545455 9.27256944444447  13.4564393939394 9.61111111111114  13.5625 9.95833333333334  C 13.6685606060606 10.3055555555555  13.7563920454545 10.6822916666667  13.8259943181819 11.0885416666667  C 13.8955965909091 11.4947916666667  13.9419981060606 11.8732638888889  13.9651988636364 12.2239583333333  Z " stroke-width="4" stroke="#000000" fill="none" transform="matrix(1 0 0 1 805 12 )" mask="url(#clip95)" />
    <path d="M 9.69957386363637 1.171875  C 10.4453125 1.953125  10.8181818181819 2.89583333333333  10.8181818181819 4  C 10.8181818181819 5.10416666666667  10.4453125 6.046875  9.69957386363637 6.828125  C 8.95383522727275 7.609375  8.05397727272725 8  7 8  C 5.94602272727275 8  5.04616477272725 7.609375  4.30042613636363 6.828125  C 3.5546875 6.046875  3.18181818181813 5.10416666666667  3.18181818181813 4  C 3.18181818181813 2.89583333333333  3.5546875 1.953125  4.30042613636363 1.171875  C 5.04616477272725 0.390625  5.94602272727275 0  7 0  C 8.05397727272725 0  8.95383522727275 0.390625  9.69957386363637 1.171875  Z " stroke-width="4" stroke="#000000" fill="none" transform="matrix(1 0 0 1 805 12 )" mask="url(#clip95)" />
  </g>
</svg>