<?xml version="1.0" encoding="utf-8"?>
<svg version="1.1" xmlns:xlink="http://www.w3.org/1999/xlink" width="16px" height="10px" xmlns="http://www.w3.org/2000/svg">
  <g transform="matrix(1 0 0 1 -871 -15 )">
    <path d="M 15.8396793587174 1.03092783505154  C 15.9465597862391 1.14547537227948  16 1.27720504009163  16 1.42611683848796  C 16 1.57502863688432  15.9465597862391 1.70675830469646  15.8396793587174 1.82130584192441  L 8.3687374749499 9.82817869415806  C 8.26185704742818 9.942726231386  8.13894455577822 10  8 10  C 7.86105544422178 10  7.73814295257183 9.942726231386  7.6312625250501 9.82817869415806  L 0.160320641282567 1.82130584192441  C 0.053440213760851 1.70675830469646  0 1.57502863688432  0 1.42611683848796  C 0 1.27720504009163  0.053440213760851 1.14547537227948  0.160320641282567 1.03092783505154  L 0.961923847695402 0.171821305841938  C 1.06880427521709 0.0572737686139959  1.19171676686706 0  1.3306613226453 0  C 1.46960587842352 0  1.59251837007348 0.0572737686139959  1.69939879759518 0.171821305841938  L 8 6.92439862542955  L 14.3006012024048 0.171821305841938  C 14.4074816299265 0.0572737686139959  14.5303941215765 0  14.6693386773547 0  C 14.8082832331329 0  14.9311957247829 0.0572737686139959  15.0380761523046 0.171821305841938  L 15.8396793587174 1.03092783505154  Z " fill-rule="nonzero" fill="#000000" stroke="none" transform="matrix(1 0 0 1 871 15 )" />
  </g>
</svg>