<?xml version="1.0" encoding="utf-8"?>
<svg version="1.1" xmlns:xlink="http://www.w3.org/1999/xlink" width="10px" height="150px" preserveAspectRatio="xMidYMin meet" viewBox="676 209  8 150" xmlns="http://www.w3.org/2000/svg">
  <path d="M 416 345  L 424 345  A 3 3 0 0 1 427 342 A 3 3 0 0 1 430 345 L 448 345  A 5 5 0 0 0 453 340 L 453 219  A 5 5 0 0 1 458 214 L 675 214  A 5 5 0 0 1 680 219 L 680 349  A 5 5 0 0 0 685 354 " stroke-width="2" stroke="#0099cc" fill="none" />
  <path d="M 683 361.6  L 690 354  L 683 346.4  L 683 361.6  Z " fill-rule="nonzero" fill="#0099cc" stroke="none" />
</svg>