<?xml version="1.0" encoding="utf-8"?>
<svg version="1.1" xmlns:xlink="http://www.w3.org/1999/xlink" width="42px" height="10px" preserveAspectRatio="xMinYMid meet" viewBox="416 389  42 8" xmlns="http://www.w3.org/2000/svg">
  <path d="M 416 393  L 448 393  A 5 5 0 0 0 453 388 L 453 357  A 3 3 0 0 0 456 354 A 3 3 0 0 0 453 351 L 453 218  A 5 5 0 0 1 458 213 L 895 213  A 5 5 0 0 1 900 218 L 900 349  A 5 5 0 0 0 905 354 L 906 354  " stroke-width="2" stroke="#0099cc" fill="none" />
  <path d="M 905 361.6  L 912 354  L 905 346.4  L 905 361.6  Z " fill-rule="nonzero" fill="#0099cc" stroke="none" />
</svg>