<?xml version="1.0" encoding="utf-8"?>
<svg version="1.1" xmlns:xlink="http://www.w3.org/1999/xlink" width="12px" height="12px" viewBox="391 387  12 12" xmlns="http://www.w3.org/2000/svg">
  <path d="M 397 387  C 400.36 387  403 389.64  403 393  C 403 396.36  400.36 399  397 399  C 393.64 399  391 396.36  391 393  C 391 389.64  393.64 387  397 387  Z " fill-rule="nonzero" fill="#ffffff" stroke="none" />
  <path d="M 397 387.5  C 400.08 387.5  402.5 389.92  402.5 393  C 402.5 396.08  400.08 398.5  397 398.5  C 393.92 398.5  391.5 396.08  391.5 393  C 391.5 389.92  393.92 387.5  397 387.5  Z " stroke-width="1" stroke="#797979" fill="none" />
  <path d="M 397 396  C 395.32 396  394 394.68  394 393  C 394 391.32  395.32 390  397 390  C 398.68 390  400 391.32  400 393  C 400 394.68  398.68 396  397 396  " fill-rule="nonzero" fill="#797979" stroke="none" />
</svg>