<?xml version="1.0" encoding="utf-8"?>
<svg version="1.1" xmlns:xlink="http://www.w3.org/1999/xlink" width="18px" height="18px" xmlns="http://www.w3.org/2000/svg">
  <g transform="matrix(1 0 0 1 -424 -419 )">
    <path d="M 0.99609375 0  L 17.00390625 0  C 17.27734375 0  17.51171875 0.0976562499999998  17.70703125 0.292968749999999  C 17.90234375 0.488281249999999  18 0.722656249999998  18 0.996093749999999  L 18 17.00390625  C 18 17.27734375  17.90234375 17.51171875  17.70703125 17.70703125  C 17.51171875 17.90234375  17.27734375 18  17.00390625 18  L 12.421875 18  L 12.421875 11.02734375  L 14.75390625 11.02734375  L 15.10546875 8.30859375  L 12.421875 8.30859375  L 12.421875 6.57421875  C 12.421875 6.13671875  12.513671875 5.80859375  12.697265625 5.58984375  C 12.880859375 5.37109375  13.23828125 5.26171875  13.76953125 5.26171875  L 15.19921875 5.25  L 15.19921875 2.82421875  C 14.70703125 2.75390625  14.01171875 2.71875  13.11328125 2.71875  C 12.05078125 2.71875  11.201171875 3.03125  10.564453125 3.65625  C 9.927734375 4.28125  9.609375 5.1640625  9.609375 6.3046875  L 9.609375 8.30859375  L 7.265625 8.30859375  L 7.265625 11.02734375  L 9.609375 11.02734375  L 9.609375 18  L 0.99609375 18  C 0.72265625 18  0.48828125 17.90234375  0.29296875 17.70703125  C 0.09765625 17.51171875  0 17.27734375  0 17.00390625  L 0 0.996093749999999  C 0 0.722656249999998  0.09765625 0.488281249999999  0.29296875 0.292968749999999  C 0.48828125 0.0976562499999998  0.72265625 0  0.99609375 0  Z " fill-rule="nonzero" fill="#ffffff" stroke="none" transform="matrix(1 0 0 1 424 419 )" />
  </g>
</svg>