<?xml version="1.0" encoding="utf-8"?>
<svg version="1.1" xmlns:xlink="http://www.w3.org/1999/xlink" width="18px" height="18px" xmlns="http://www.w3.org/2000/svg">
  <g transform="matrix(1 0 0 1 -536 -419 )">
    <path d="M 9.18538205980066 10.8046875  L 9.18538205980066 7.7109375  L 17.8564784053156 7.7109375  C 17.9521594684385 8.234375  18 8.734375  18 9.2109375  C 18 10.90625  17.6372093023256 12.419921875  16.9116279069767 13.751953125  C 16.1860465116279 15.083984375  15.1514950166113 16.125  13.8079734219269 16.875  C 12.4644518272425 17.625  10.9235880398671 18  9.18538205980066 18  C 7.93355481727575 18  6.74152823920266 17.763671875  5.6093023255814 17.291015625  C 4.47707641196013 16.818359375  3.50033222591362 16.1796875  2.67906976744186 15.375  C 1.8578073089701 14.5703125  1.20598006644518 13.61328125  0.72358803986711 12.50390625  C 0.241196013289037 11.39453125  0 10.2265625  0 9  C 0 7.7734375  0.241196013289037 6.60546875  0.72358803986711 5.49609375  C 1.20598006644518 4.38671875  1.8578073089701 3.4296875  2.67906976744186 2.625  C 3.50033222591362 1.8203125  4.47707641196013 1.181640625  5.6093023255814 0.708984375000001  C 6.74152823920266 0.236328124999998  7.93355481727575 0  9.18538205980066 0  C 11.5774086378738 0  13.6305647840532 0.785156249999999  15.3448504983389 2.35546875  L 12.8451827242525 4.7109375  C 11.8644518272425 3.78125  10.6445182724253 3.31640625  9.18538205980066 3.31640625  C 8.15681063122924 3.31640625  7.20598006644518 3.5703125  6.3328903654485 4.078125  C 5.45980066445183 4.5859375  4.76810631229236 5.275390625  4.2578073089701 6.146484375  C 3.74750830564784 7.017578125  3.49235880398671 7.96875  3.49235880398671 9  C 3.49235880398671 10.03125  3.74750830564784 10.982421875  4.2578073089701 11.853515625  C 4.76810631229236 12.724609375  5.45980066445183 13.4140625  6.3328903654485 13.921875  C 7.20598006644518 14.4296875  8.15681063122924 14.68359375  9.18538205980066 14.68359375  C 9.87906976744186 14.68359375  10.5169435215947 14.58984375  11.0990033222591 14.40234375  C 11.6810631229236 14.21484375  12.1594684385382 13.98046875  12.534219269103 13.69921875  C 12.9089700996678 13.41796875  13.2358803986711 13.09765625  13.514950166113 12.73828125  C 13.7940199335548 12.37890625  13.9993355481728 12.0390625  14.1308970099668 11.71875  C 14.2624584717608 11.3984375  14.3521594684385 11.09375  14.4 10.8046875  L 9.18538205980066 10.8046875  Z " fill-rule="nonzero" fill="#ffffff" stroke="none" transform="matrix(1 0 0 1 536 419 )" />
  </g>
</svg>