<?xml version="1.0" encoding="utf-8"?>
<svg version="1.1" xmlns:xlink="http://www.w3.org/1999/xlink" width="8px" height="10px" xmlns="http://www.w3.org/2000/svg">
  <g transform="matrix(1 0 0 1 -167 -307 )">
    <path d="M 7.86254295532646 4.7695390781563  C 7.95418098510882 4.83633934535737  8 4.91315965263863  8 5  C 8 5.08684034736137  7.95418098510882 5.16366065464263  7.86254295532646 5.2304609218437  L 1.45704467353951 9.89979959919839  C 1.36540664375715 9.96659986639946  1.26002290950743 10  1.14089347079039 10  C 1.02176403207332 10  0.916380297823594 9.96659986639946  0.824742268041234 9.89979959919839  L 0.137457044673539 9.39879759519033  C 0.0458190148911797 9.33199732798937  0 9.25517702070812  0 9.16833667334674  C 0 9.08149632598531  0.0458190148911797 9.00467601870406  0.137457044673539 8.93787575150299  L 5.53951890034364 5  L 0.137457044673539 1.06212424849701  C 0.0458190148911797 0.99532398129594  0 0.918503674014687  0 0.831663326653256  C 0 0.744822979291882  0.0458190148911797 0.66800267201063  0.137457044673539 0.601202404809669  L 0.824742268041234 0.100200400801612  C 0.916380297823594 0.0334001336005372  1.02176403207332 0  1.14089347079039 0  C 1.26002290950743 0  1.36540664375715 0.0334001336005372  1.45704467353951 0.100200400801612  L 7.86254295532646 4.7695390781563  Z " fill-rule="nonzero" fill="#333333" stroke="none" transform="matrix(1 0 0 1 167 307 )" />
  </g>
</svg>