<?xml version="1.0" encoding="utf-8"?>
<svg version="1.1" xmlns:xlink="http://www.w3.org/1999/xlink" width="20px" height="20px" xmlns="http://www.w3.org/2000/svg">
  <g transform="matrix(1 0 0 1 -850 -196 )">
    <path d="M 860 197  C 865.04 197  869 200.96  869 206  C 869 211.04  865.04 215  860 215  C 854.96 215  851 211.04  851 206  C 851 200.96  854.96 197  860 197  Z " fill-rule="nonzero" fill="#ffffff" stroke="none" />
    <path d="M 860 197  C 865.04 197  869 200.96  869 206  C 869 211.04  865.04 215  860 215  C 854.96 215  851 211.04  851 206  C 851 200.96  854.96 197  860 197  Z " stroke-width="2" stroke="#ff0000" fill="none" />
  </g>
</svg>