<?xml version="1.0" encoding="utf-8"?>
<svg version="1.1" xmlns:xlink="http://www.w3.org/1999/xlink" width="159px" height="18px" xmlns="http://www.w3.org/2000/svg">
  <defs>
    <mask fill="white" id="clip96">
      <path d="M 0 14  L 0 4  C 0 1.75999999999999  1.75999999999999 0  4 0  L 155 0  C 157.24 0  159 1.75999999999999  159 4  L 159 14  C 159 16.24  157.24 18  155 18  L 99.1794871794872 18  L 4 18  C 1.75999999999999 18  0 16.24  0 14  Z " fill-rule="evenodd" />
    </mask>
  </defs>
  <g transform="matrix(1 0 0 1 -238 -774 )">
    <path d="M 0 14  L 0 4  C 0 1.75999999999999  1.75999999999999 0  4 0  L 155 0  C 157.24 0  159 1.75999999999999  159 4  L 159 14  C 159 16.24  157.24 18  155 18  L 99.1794871794872 18  L 4 18  C 1.75999999999999 18  0 16.24  0 14  Z " fill-rule="nonzero" fill="#ffffff" stroke="none" transform="matrix(1 0 0 1 238 774 )" />
    <path d="M 0 14  L 0 4  C 0 1.75999999999999  1.75999999999999 0  4 0  L 155 0  C 157.24 0  159 1.75999999999999  159 4  L 159 14  C 159 16.24  157.24 18  155 18  L 99.1794871794872 18  L 4 18  C 1.75999999999999 18  0 16.24  0 14  Z " stroke-width="2" stroke="#dcdfe6" fill="none" transform="matrix(1 0 0 1 238 774 )" mask="url(#clip96)" />
  </g>
</svg>