<?xml version="1.0" encoding="utf-8"?>
<svg version="1.1" xmlns:xlink="http://www.w3.org/1999/xlink" width="12px" height="12px" viewBox="302 844  12 12" xmlns="http://www.w3.org/2000/svg">
  <path d="M 308 844  C 311.36 844  314 846.64  314 850  C 314 853.36  311.36 856  308 856  C 304.64 856  302 853.36  302 850  C 302 846.64  304.64 844  308 844  Z " fill-rule="nonzero" fill="#ffffff" stroke="none" />
  <path d="M 308 844.5  C 311.08 844.5  313.5 846.92  313.5 850  C 313.5 853.08  311.08 855.5  308 855.5  C 304.92 855.5  302.5 853.08  302.5 850  C 302.5 846.92  304.92 844.5  308 844.5  Z " stroke-width="1" stroke="#797979" fill="none" />
  <path d="M 308 853  C 306.32 853  305 851.68  305 850  C 305 848.32  306.32 847  308 847  C 309.68 847  311 848.32  311 850  C 311 851.68  309.68 853  308 853  " fill-rule="nonzero" fill="#797979" stroke="none" />
</svg>